<svg viewBox="0 0 45 41" x="0" y="0" fill="none" xmlns="http://www.w3.org/2000/svg"><path id="Vector_17" data-node-id="0:150" d="M44,41v-2.3896c0,-0.6697 -0.39,-1.2697 -0.98,-1.5082c-6.92,-2.794 -14.61,-6.2622 -15.25,-8.4237v-2.2681c1.43,-1.5334 2.57,-3.6741 3.24,-6.1778c1.61,-1.1822 2.01,-3.6163 0.67,-5.3289v-5.0756c0,-5.2414 -2.79,-8.8281 -9.18,-8.8281c-6.22,0 -9.19,3.5867 -9.19,8.8281v5.0771c-1.33,1.7111 -0.93,4.1437 0.68,5.3259c0.67,2.5052 1.81,4.6459 3.24,6.1793v2.2681c-0.64,2.1585 -8.33,5.6282 -15.25,8.4237c-0.59,0.2385 -0.98,0.8385 -0.98,1.5082v2.3896" stroke="black" stroke-width="2" xmlns="http://www.w3.org/2000/svg"/></svg>