<svg viewBox="0 0 36 36" x="0" y="0" fill="none" xmlns="http://www.w3.org/2000/svg"><path id="Vector_2" data-node-id="0:150" fill-rule="evenodd" clip-rule="evenodd" d="M18,35.5c9.665,0 17.5,-7.84 17.5,-17.5c0,-9.66 -7.835,-17.5 -17.5,-17.5c-9.665,0 -17.5,7.84 -17.5,17.5c0,9.66 7.835,17.5 17.5,17.5zM25.692,11.68c0.135,-1.53 -1.484,-0.9 -1.484,-0.9c-1.195,0.49 -2.428,1 -3.674,1.5c-3.864,1.58 -7.855,3.21 -11.256,4.81c-1.843,0.68 -0.764,1.35 -0.764,1.35l2.923,0.91c1.349,0.4 2.068,-0.05 2.068,-0.05l6.296,-4.28c2.248,-1.54 1.709,-0.27 1.169,0.27l-4.721,4.51c-0.72,0.63 -0.36,1.17 -0.046,1.44c0.893,0.79 3.087,2.23 4.045,2.86c0.25,0.16 0.415,0.27 0.453,0.3c0.224,0.18 1.438,0.99 2.248,0.81c0.81,-0.18 0.899,-1.22 0.899,-1.22l1.08,-7.08c0.161,-1.23 0.347,-2.41 0.496,-3.35c0.139,-0.89 0.246,-1.57 0.268,-1.88z" fill="#BEBEBE" xmlns="http://www.w3.org/2000/svg"/></svg>