<svg viewBox="0 0 36 36" x="0" y="0" fill="none" xmlns="http://www.w3.org/2000/svg"><path id="Vector_5" data-node-id="0:153" fill-rule="evenodd" clip-rule="evenodd" d="M18,35.5c9.665,0 17.5,-7.84 17.5,-17.5c0,-9.66 -7.835,-17.5 -17.5,-17.5c-9.665,0 -17.5,7.84 -17.5,17.5c0,9.66 7.835,17.5 17.5,17.5zM19.923,9.25c-0.544,0.01 -1.089,0.01 -1.636,0.01v0.01c-0.014,1.87 -0.013,3.76 -0.012,5.64c0,1.05 0.001,2.1 -0.002,3.16c-0.002,0.35 -0.001,0.7 -0.001,1.06c0.001,0.95 0.002,1.89 -0.05,2.84c-0.008,0.27 -0.14,0.5 -0.269,0.73l-0.031,0.05c-0.424,0.69 -1.204,1.16 -2.019,1.17c-1.228,0.11 -2.379,-0.89 -2.552,-2.09c-0.001,-0.06 -0.004,-0.12 -0.006,-0.18c-0.012,-0.34 -0.024,-0.68 0.105,-0.99c0.182,-0.52 0.533,-0.98 0.995,-1.28c0.632,-0.44 1.477,-0.5 2.201,-0.27c0,-0.46 0.008,-0.92 0.016,-1.38c0.01,-0.62 0.021,-1.24 0.012,-1.86c-1.584,-0.3 -3.275,0.2 -4.483,1.26c-1.065,0.9 -1.751,2.23 -1.883,3.61c-0.013,0.37 -0.01,0.73 0.009,1.09c0.151,1.71 1.187,3.29 2.66,4.16c0.889,0.53 1.931,0.81 2.974,0.75c1.7,-0.03 3.356,-0.94 4.309,-2.34c0.593,-0.84 0.93,-1.85 0.987,-2.87c0.014,-1.4 0.014,-2.8 0.012,-4.21c0,-0.72 -0.001,-1.45 0.001,-2.17c0.379,0.25 0.766,0.49 1.182,0.68c0.954,0.45 2.011,0.67 3.062,0.7v-2.93c-1.122,-0.13 -2.275,-0.5 -3.09,-1.31c-0.817,-0.79 -1.219,-1.92 -1.276,-3.04c-0.405,0 -0.809,0 -1.215,0z" fill="#BEBEBE" xmlns="http://www.w3.org/2000/svg"/></svg>