<svg viewBox="0 0 36 36" x="0" y="0" fill="none" xmlns="http://www.w3.org/2000/svg"><path id="Vector_4" data-node-id="0:152" fill-rule="evenodd" clip-rule="evenodd" d="M18,35.5c9.665,0 17.5,-7.84 17.5,-17.5c0,-9.66 -7.835,-17.5 -17.5,-17.5c-9.665,0 -17.5,7.84 -17.5,17.5c0,9.66 7.835,17.5 17.5,17.5zM24.265,11.92c1.343,0.12 2.1,0.94 2.266,2.25c0.116,0.92 0.219,2.23 0.219,3.63c0,2.48 -0.219,3.91 -0.219,3.91c-0.206,1.3 -0.837,2.01 -2.163,2.16c-1.482,0.17 -4.816,0.24 -6.297,0.24c-1.533,0 -4.633,-0.06 -6.181,-0.19c-1.33,-0.11 -2.238,-0.85 -2.421,-2.18c-0.133,-0.96 -0.219,-2.1 -0.219,-3.92c0,-2.03 0.073,-2.89 0.245,-3.8c0.245,-1.31 0.868,-1.94 2.292,-2.09c1.494,-0.15 2.905,-0.23 6.065,-0.23c1.544,0 4.875,0.08 6.413,0.22zM16.139,15.34v5.03l4.79,-2.55z" fill="#BEBEBE" xmlns="http://www.w3.org/2000/svg"/></svg>