<svg viewBox="0 0 36 36" x="0" y="0" fill="none" xmlns="http://www.w3.org/2000/svg"><path id="Vector" data-node-id="0:149" fill-rule="evenodd" clip-rule="evenodd" d="M18,35.5c9.665,0 17.5,-7.84 17.5,-17.5c0,-9.66 -7.835,-17.5 -17.5,-17.5c-9.665,0 -17.5,7.84 -17.5,17.5c0,9.66 7.835,17.5 17.5,17.5zM9.25,14.29c0,-2.78 2.26,-5.04 5.037,-5.04h7.426c2.777,0 5.037,2.26 5.037,5.04v7.49c0,2.78 -2.26,5.04 -5.037,5.04h-7.426c-2.777,0 -5.037,-2.26 -5.037,-5.04zM13.446,18c0,-2.49 2.049,-4.52 4.568,-4.52c2.518,0 4.568,2.03 4.568,4.52c0,2.49 -2.05,4.52 -4.568,4.52c-2.519,0 -4.568,-2.03 -4.568,-4.52zM15.11,18c0,1.58 1.302,2.86 2.904,2.86c1.601,0 2.904,-1.28 2.904,-2.86c0,-1.57 -1.303,-2.85 -2.904,-2.85c-1.602,0 -2.904,1.28 -2.904,2.85zM22.664,14.37c0.593,0 1.074,-0.48 1.074,-1.07c0,-0.6 -0.481,-1.08 -1.074,-1.08c-0.594,0 -1.075,0.48 -1.075,1.08c0,0.59 0.481,1.07 1.075,1.07z" fill="#BEBEBE" xmlns="http://www.w3.org/2000/svg"/></svg>