<svg viewBox="0 0 36 36" x="0" y="0" fill="none" xmlns="http://www.w3.org/2000/svg"><path id="Vector_3" data-node-id="0:151" fill-rule="evenodd" clip-rule="evenodd" d="M18,35.5c9.665,0 17.5,-7.84 17.5,-17.5c0,-9.66 -7.835,-17.5 -17.5,-17.5c-9.665,0 -17.5,7.84 -17.5,17.5c0,9.66 7.835,17.5 17.5,17.5zM24.917,10.65c-1.801,-1.81 -4.196,-2.8 -6.748,-2.8c-5.257,0 -9.537,4.28 -9.539,9.54c0,1.68 0.439,3.32 1.273,4.77l-1.353,4.94l5.057,-1.33c1.393,0.76 2.962,1.16 4.558,1.16h0.004c5.257,0 9.536,-4.27 9.539,-9.53c0.001,-2.55 -0.99,-4.95 -2.791,-6.75zM22.518,19.39c-0.238,-0.12 -1.41,-0.7 -1.629,-0.78c-0.218,-0.08 -0.377,-0.12 -0.536,0.12c-0.159,0.24 -0.616,0.77 -0.755,0.93c-0.139,0.16 -0.278,0.18 -0.516,0.06c-0.039,-0.02 -0.092,-0.04 -0.158,-0.07c-0.335,-0.14 -0.997,-0.43 -1.759,-1.11c-0.708,-0.63 -1.187,-1.41 -1.326,-1.65c-0.139,-0.24 -0.015,-0.37 0.105,-0.49c0.071,-0.07 0.153,-0.17 0.236,-0.27c0.04,-0.05 0.081,-0.1 0.121,-0.14c0.101,-0.12 0.145,-0.21 0.205,-0.33c0.01,-0.03 0.021,-0.05 0.034,-0.07c0.079,-0.16 0.039,-0.3 -0.02,-0.42c-0.04,-0.08 -0.266,-0.63 -0.471,-1.13c-0.102,-0.25 -0.198,-0.48 -0.264,-0.64c-0.171,-0.41 -0.344,-0.41 -0.483,-0.41c-0.018,0 -0.036,0 -0.053,0c-0.139,-0.01 -0.298,-0.01 -0.457,-0.01c-0.159,0 -0.417,0.06 -0.636,0.3c-0.014,0.02 -0.03,0.03 -0.047,0.05c-0.248,0.27 -0.787,0.84 -0.787,1.94c0,1.17 0.85,2.3 0.972,2.46l0.001,0.01c0.008,0.01 0.022,0.03 0.042,0.05c0.284,0.41 1.795,2.58 4.03,3.54c0.569,0.25 1.012,0.4 1.359,0.51c0.571,0.18 1.09,0.15 1.501,0.09c0.458,-0.07 1.41,-0.58 1.609,-1.13c0.198,-0.56 0.198,-1.04 0.139,-1.14c-0.048,-0.08 -0.161,-0.13 -0.328,-0.21c-0.04,-0.02 -0.083,-0.04 -0.129,-0.06z" fill="#BEBEBE" xmlns="http://www.w3.org/2000/svg"/></svg>